<svg width="243" height="66" viewBox="0 0 243 66" fill="none" xmlns="http://www.w3.org/2000/svg">
<path d="M64.0467 22.1093C62.7754 22.1093 61.9118 22.7357 61.9118 23.7414C61.9118 25.8239 65.0763 25.0961 65.0763 26.4031C65.0763 26.8537 64.6658 27.1146 63.9802 27.1146C63.3519 27.1146 62.6 26.8133 61.9972 26.2604L61.5703 27.1146C62.1727 27.6648 63.0432 28.042 63.9639 28.042C65.2518 28.042 66.1723 27.397 66.1723 26.3509C66.1816 24.242 63.0173 24.9297 63.0173 23.649C63.0173 23.2553 63.3946 23.0369 63.9708 23.0369C64.4145 23.0369 65.0503 23.1981 65.6859 23.5826L66.0964 22.7121C65.5531 22.3516 64.8081 22.1093 64.0467 22.1093ZM71.5096 23.0369V22.152H67.3274V28.0088H71.6114V27.1218H68.3141V25.5062H71.1749V24.6192H68.3141V23.0369H71.5096Z" fill="#231F20"/>
<path d="M75.3916 22.1263C73.6598 22.1263 72.3125 23.407 72.3125 25.0723C72.3125 26.7542 73.6432 28.0518 75.3583 28.0518C76.1862 28.0518 77.0332 27.6744 77.626 27.0885L77.0401 26.4364C76.5964 26.8634 75.994 27.1313 75.408 27.1313C74.2363 27.1313 73.3158 26.2183 73.3158 25.0627C73.3158 23.9075 74.2363 23.0037 75.408 23.0037C76.0034 23.0037 76.6131 23.2887 77.0401 23.7488L77.6188 23.0301C77.0495 22.47 76.2194 22.1263 75.3916 22.1263ZM82.3466 28.009H83.4687L82.1545 26.0497C82.9327 25.7482 83.3668 25.0891 83.3668 24.1521C83.3668 22.8783 82.5054 22.1522 81.0065 22.1522H78.6319V28.009H79.6187V26.2442H81.0065C81.0988 26.2442 81.1915 26.2442 81.2743 26.2347L82.3466 28.009ZM79.6187 25.3569V23.037H81.0065C81.9102 23.037 82.4295 23.407 82.4295 24.1757C82.4295 24.9704 81.9102 25.3569 81.0065 25.3569H79.6187ZM88.8654 23.037V22.1522H84.6833V28.009H88.9672V27.122H85.67V25.5064H88.5308V24.6194H85.67V23.037H88.8654ZM94.1716 23.037V22.1522H89.4774V23.037H91.3253V28.009H92.3142V23.037H94.1716Z" fill="#231F20"/>
<path d="M98.5034 26.6877L99.0631 28.0088H100.119L97.5569 22.152H96.5464L93.9609 28.0088H94.9878L95.5502 26.6877H98.5034ZM98.1262 25.8075H95.9179L97.0232 23.2053L98.1262 25.8075ZM104.614 28.0088H105.736L104.422 26.0494C105.2 25.748 105.634 25.0889 105.634 24.1519C105.634 22.8781 104.773 22.152 103.274 22.152H100.899V28.0088H101.886V26.244H103.274C103.366 26.244 103.459 26.244 103.542 26.2345L104.614 28.0088ZM101.886 25.3567V23.0368H103.274C104.178 23.0368 104.697 23.4068 104.697 24.1754C104.697 24.9702 104.178 25.3567 103.274 25.3567H101.886ZM107.937 28.0088V22.152H106.951V28.0088H107.937ZM113.258 26.6877L113.818 28.0088H114.873L112.311 22.152H111.301L108.715 28.0088H109.742L110.305 26.6877H113.258ZM112.881 25.8075H110.673L111.778 23.2053L112.881 25.8075Z" fill="#231F20"/>
<path d="M4.9375 30.9889V36.8457H7.31189C9.08623 36.8457 10.367 35.6075 10.367 33.9162C10.367 32.2178 9.09585 30.9889 7.338 30.9889H4.9375ZM5.92401 31.8736H7.32146C8.4766 31.8736 9.37086 32.7277 9.37086 33.9256C9.37086 35.1141 8.50036 35.9587 7.3642 35.9587H5.92401V31.8736Z" fill="#231F20"/>
<path d="M15.1284 35.5246L15.6881 36.8457H16.7437L14.182 30.9889H13.1713L10.5859 36.8457H11.6128L12.1752 35.5246H15.1284ZM14.7513 34.6445H12.5429L13.6483 32.0422L14.7513 34.6445Z" fill="#231F20"/>
<path d="M22.0931 30.9033C20.6293 30.9033 19.6664 31.6246 19.6664 32.7535C19.6664 34.8197 22.7287 34.2601 22.7287 35.1471C22.7287 35.4152 22.4937 35.5408 22.1263 35.5408C21.5236 35.5408 20.5465 35.1543 19.9438 34.6443L19.2891 35.9678C20.0269 36.5441 21.1134 36.8955 22.1095 36.8955C23.4238 36.8955 24.529 36.3023 24.529 35.0548C24.529 32.9386 21.4667 33.4487 21.4667 32.5854C21.4667 32.3694 21.6589 32.2676 21.9507 32.2676C22.4441 32.2676 23.2979 32.5782 23.9006 32.9199L24.5458 31.582C23.9098 31.1716 22.9896 30.9033 22.0931 30.9033ZM29.9613 32.3171V30.9792H25.1645V36.8455H30.044V35.5076H26.9058V34.5778H29.6766V33.2399H26.9058V32.3171H29.9613Z" fill="#231F20"/>
<path d="M34.6987 33.8075V35.2405C34.381 35.3827 34.0538 35.4656 33.8119 35.4656C32.9577 35.4656 32.3126 34.8132 32.3126 33.9167C32.3126 33.0389 32.9508 32.3773 33.7951 32.3773C34.3051 32.3773 34.8911 32.6288 35.292 33.0129L36.2812 31.8174C35.6621 31.2717 34.6987 30.9303 33.8023 30.9303C31.9116 30.9303 30.5312 32.2018 30.5312 33.9167C30.5312 35.6411 31.8689 36.9221 33.686 36.9221C34.5234 36.9221 35.5598 36.6044 36.1959 36.1679V33.8075H34.6987ZM42.4819 30.9799H40.7407V34.3699C40.7407 35.0555 40.3329 35.4656 39.754 35.4656C39.1681 35.4656 38.7079 35.0482 38.7079 34.3699V30.9799H36.9667V34.3699C36.9667 35.9257 38.0625 36.9221 39.7468 36.9221C41.4193 36.9221 42.4819 35.9257 42.4819 34.3699V30.9799ZM46.8156 36.8462H48.7918L47.6031 34.9297C48.239 34.5691 48.59 33.9334 48.59 33.0629C48.59 31.7345 47.6863 30.9799 46.1137 30.9799H43.3761V36.8462H45.1172V35.2641H46.0378L46.8156 36.8462ZM45.1172 33.9262V32.3178H46.1137C46.6306 32.3178 46.932 32.6024 46.932 33.1148C46.932 33.6416 46.6306 33.9262 46.1137 33.9262H45.1172ZM53.3935 35.9093L53.7377 36.8462H55.5948L53.1775 30.9799H51.3868L48.8842 36.8462H50.6749L51.0263 35.9093H53.3935ZM52.9335 34.6378H51.5124L52.2311 32.721L52.9335 34.6378ZM61.5866 36.8462V30.9799H59.9973V34.2608L57.5114 30.9799H56.0217V36.8462H57.6205V33.5821L60.1065 36.8462H61.5866ZM65.4203 35.3993C64.623 35.3993 64.0206 34.7469 64.0206 33.8836C64.0206 33.0225 64.623 32.3773 65.4203 32.3773C65.904 32.3773 66.4497 32.6879 66.8174 33.1553L67.8208 31.9668C67.2278 31.3312 66.2814 30.9303 65.394 30.9303C63.5769 30.9303 62.2393 32.1946 62.2393 33.9C62.2393 35.4824 63.3282 36.6872 64.8676 36.889L64.5498 37.5318C64.6493 37.515 64.7749 37.4986 64.8507 37.4986C65.0835 37.4986 65.2185 37.6172 65.2185 37.7927C65.2185 37.9586 65.0929 38.0773 64.8911 38.0773C64.7585 38.0773 64.6161 38.0086 64.5166 37.9091L64.2152 38.5947C64.457 38.7628 64.7821 38.8721 65.0335 38.8721C65.7118 38.8721 66.1555 38.5115 66.1555 37.9586C66.1555 37.6409 65.9372 37.3823 65.5959 37.2731L65.795 36.8794C66.5396 36.7631 67.2943 36.3598 67.8208 35.7906L66.8174 34.7209C66.4142 35.1314 65.8709 35.3993 65.4203 35.3993Z" fill="#231F20"/>
<path d="M72.2125 35.9087L72.5566 36.8457H74.4138L71.9965 30.9794H70.2058L67.7031 36.8457H69.4939L69.8452 35.9087H72.2125ZM71.7524 34.6373H70.3314L71.0501 32.7205L71.7524 34.6373ZM76.6742 30.9794V36.8457H78.4153V35.2635H79.336C80.8516 35.2635 81.72 34.4617 81.72 33.0624C81.72 31.734 80.8516 30.9794 79.336 30.9794H76.6742ZM78.4153 32.3173H79.2527C79.77 32.3173 80.071 32.6019 80.071 33.1143C80.071 33.641 79.77 33.9256 79.2527 33.9256H78.4153V32.3173Z" fill="#231F20"/>
<path d="M86.4586 29.5329L84.9948 29.0465L84.0982 30.5527H85.3367L86.4586 29.5329ZM87.6634 30.9796H85.9223V34.3696C85.9223 35.0552 85.5144 35.4653 84.9357 35.4653C84.3497 35.4653 83.8896 35.0479 83.8896 34.3696V30.9796H82.1484V34.3696C82.1484 35.9255 83.2442 36.9219 84.9285 36.9219C86.6008 36.9219 87.6634 35.9255 87.6634 34.3696V30.9796ZM88.5577 30.9796V36.846H91.5631C92.9675 36.846 93.8712 36.2104 93.8712 35.2071C93.8712 34.462 93.4111 33.8759 92.6923 33.7241C93.3021 33.5487 93.6885 33.0554 93.6885 32.4599C93.6885 31.5561 92.8087 30.9796 91.4377 30.9796H88.5577ZM90.2893 32.2844H91.3449C91.689 32.2844 91.9049 32.4693 91.9049 32.7707C91.9049 33.0789 91.689 33.2809 91.3449 33.2809H90.2893V32.2844ZM90.2893 34.4692H91.3449C91.7886 34.4692 92.0637 34.6707 92.0637 34.9885C92.0637 35.3303 91.7886 35.5484 91.3449 35.5484H90.2893V34.4692ZM96.3239 35.3894V30.9796H94.5828V36.846H98.7837V35.3894H96.3239ZM101.127 36.846V30.9796H99.3861V36.846H101.127ZM104.934 30.9301C103.117 30.9301 101.78 32.1943 101.78 33.8997C101.78 35.6313 103.094 36.9219 104.875 36.9219C105.762 36.9219 106.726 36.4782 107.361 35.7903L106.358 34.7207C105.955 35.1312 105.411 35.399 104.961 35.399C104.163 35.399 103.561 34.7466 103.561 33.8833C103.561 33.0222 104.163 32.3771 104.961 32.3771C105.444 32.3771 105.99 32.6876 106.358 33.155L107.361 31.9665C106.768 31.331 105.822 30.9301 104.934 30.9301Z" fill="#231F20"/>
<path d="M111.744 35.9087L112.088 36.8457H113.945L111.528 30.9794H109.737L107.234 36.8457H109.025L109.376 35.9087H111.744ZM111.284 34.6373H109.862L110.581 32.7205L111.284 34.6373Z" fill="#231F20"/>
<path d="M89.2811 39.7831C88.0098 39.7831 87.1462 40.4094 87.1462 41.4151C87.1462 43.4978 90.3107 42.7698 90.3107 44.0768C90.3107 44.5274 89.9001 44.7884 89.2146 44.7884C88.5862 44.7884 87.8344 44.487 87.2317 43.9343L86.8047 44.7884C87.4071 45.3385 88.2777 45.7158 89.1983 45.7158C90.4862 45.7158 91.4067 45.0707 91.4067 44.0246C91.416 41.9157 88.2516 42.6035 88.2516 41.3228C88.2516 40.9291 88.629 40.7105 89.2052 40.7105C89.6488 40.7105 90.2847 40.8719 90.9203 41.2564L91.3308 40.3858C90.7876 40.0253 90.0425 39.7831 89.2811 39.7831ZM94.4855 39.7831C93.2143 39.7831 92.3506 40.4094 92.3506 41.4151C92.3506 43.4978 95.5151 42.7698 95.5151 44.0768C95.5151 44.5274 95.1047 44.7884 94.4192 44.7884C93.7907 44.7884 93.0388 44.487 92.4361 43.9343L92.0091 44.7884C92.6115 45.3385 93.4822 45.7158 94.4027 45.7158C95.6906 45.7158 96.6111 45.0707 96.6111 44.0246C96.6204 41.9157 93.4562 42.6035 93.4562 41.3228C93.4562 40.9291 93.8334 40.7105 94.4096 40.7105C94.8533 40.7105 95.4891 40.8719 96.1248 41.2564L96.5352 40.3858C95.992 40.0253 95.247 39.7831 94.4855 39.7831ZM97.7664 39.8257V45.6827H98.7529V43.9177H100.1C101.573 43.9177 102.418 43.1467 102.418 41.8256C102.418 40.5518 101.573 39.8257 100.1 39.8257H97.7664ZM98.7529 40.7105H100.058C100.962 40.7105 101.471 41.0805 101.471 41.8493C101.471 42.6439 100.962 43.0304 100.058 43.0304H98.7529V40.7105Z" fill="#231F20"/>
<path d="M105.317 43.4644V42.803H103.258V43.4644H105.317ZM106.598 39.8257V45.6826H107.585V43.9177H108.932C110.405 43.9177 111.25 43.1467 111.25 41.8256C111.25 40.5518 110.405 39.8257 108.932 39.8257H106.598ZM107.585 40.7105H108.889C109.793 40.7105 110.303 41.0805 110.303 41.8493C110.303 42.6439 109.793 43.0303 108.889 43.0303H107.585V40.7105Z" fill="#231F20"/>
<path d="M113.135 45.6826V39.8257H112.148V45.6826H113.135Z" fill="#231F20"/>
<path d="M151.93 15.8105C157.057 13.2874 162.159 11.3711 167.192 10.9896C167.231 10.1098 167.27 9.23565 167.309 8.36972C162.269 8.89943 157.178 10.607 152.057 12.9631C152.014 13.9103 151.972 14.8588 151.93 15.8105Z" fill="#254AA5"/>
<path d="M167.247 12.9709C162.539 13.2411 157.769 14.9628 152.97 17.2978C152.928 18.2404 152.885 19.1866 152.844 20.1348C157.647 17.6827 162.425 15.8173 167.126 15.6572C167.167 14.7554 167.207 13.8592 167.247 12.9709Z" fill="#F5AF0C"/>
<path d="M150.477 26.21C156.443 22.8919 162.388 20.0295 168.189 20.4271C168.23 19.4961 168.272 18.5719 168.313 17.6527C162.506 17.3918 156.569 20.0736 150.606 23.3117C150.562 24.2776 150.52 25.2432 150.477 26.21Z" fill="#F5AF0C"/>
<path d="M168.713 27.4233C168.67 28.3787 168.628 29.3387 168.585 30.3032C155.906 28.4461 142.407 44.9407 129.727 43.0937L130.273 40.3064C142.829 41.7651 156.179 25.4666 168.713 27.4233Z" fill="#EF3120"/>
<path d="M171.117 33.0115C171.074 33.9817 171.03 34.9521 170.987 35.9227C163.828 33.1679 156.342 37.7279 148.881 41.7173C141.455 45.8109 134.054 49.3367 126.891 47.5502L127.433 44.7793C141.63 49.0307 156.955 28.0099 171.117 33.0115Z" fill="#EF3120"/>
<path d="M169.75 37.7477C169.706 38.7229 169.663 39.7013 169.619 40.6809C162.747 38.9418 155.602 43.3091 148.494 46.865C141.404 50.5728 134.35 53.4726 127.461 52.6634L128.007 49.8795C134.745 50.9009 141.672 47.7288 148.623 43.9586C155.74 40.2218 162.885 35.8591 169.75 37.7477Z" fill="#EF3120"/>
<path d="M144.257 60.3305C144.217 61.2397 144.176 62.145 144.136 63.0472C140.057 64.3144 135.999 65.1388 131.938 66L132.434 63.4714C136.36 62.7386 140.299 61.7534 144.257 60.3305Z" fill="#217526"/>
<path d="M167.917 45.4213C161.343 44.8371 154.559 48.9375 147.823 51.9788C140.931 55.3037 134.087 57.523 127.344 57.4859L127.892 54.6858C134.478 55.0871 141.195 52.542 147.952 49.0884C154.699 45.8118 161.485 41.63 168.051 42.4184L167.917 45.4213Z" fill="#217526"/>
<path d="M158.754 52.3369C154.522 53.8381 150.263 55.9749 146.025 57.6188C140.659 59.8034 135.326 61.1969 130.023 61.9609L130.542 59.3127C135.702 58.7655 140.91 57.1414 146.151 54.7981C150.397 52.9708 154.664 50.6729 158.897 49.1428L158.754 52.3369Z" fill="#217526"/>
<path d="M165.447 4.16326C165.41 4.98883 165.373 5.82222 165.336 6.66516C161.497 7.30146 157.632 8.52825 153.75 10.1328L153.873 7.37119C157.748 5.92995 161.606 4.85629 165.447 4.16326Z" fill="#254AA5"/>
<path d="M159.041 1.35238C160.876 0.878155 162.71 0.443341 164.546 0.000264168C164.539 0.80608 164.532 1.62018 164.525 2.44222C162.66 2.84551 160.795 3.30449 158.93 3.83789L159.041 1.35238Z" fill="#254AA5"/>
<path d="M167.323 25.1597C159.887 24.7873 152.193 30.2609 144.562 34.2549L144.694 31.3277C152.324 27.3241 160.012 22.0257 167.448 22.3445C167.407 23.2768 167.364 24.2148 167.323 25.1597Z" fill="#F5AF0C"/>
<path d="M179.171 45.2116L178.363 43.376L177.556 45.2116H179.171ZM179.359 45.6392H177.368L176.957 46.5762H176.406L178.101 42.8313H178.631L180.332 46.5762H179.771L179.359 45.6392Z" fill="#231F20"/>
<path d="M181.123 45.4388C181.25 45.658 181.424 45.8309 181.647 45.9547C181.871 46.08 182.119 46.1428 182.394 46.1428C182.665 46.1428 182.911 46.08 183.131 45.9547C183.353 45.8309 183.526 45.658 183.653 45.4388C183.779 45.2196 183.843 44.974 183.843 44.7039C183.843 44.4325 183.779 44.1867 183.653 43.9675C183.526 43.7486 183.353 43.5771 183.131 43.4517C182.911 43.3266 182.665 43.2652 182.394 43.2652C182.119 43.2652 181.871 43.3266 181.647 43.4517C181.424 43.5771 181.25 43.7486 181.123 43.9675C180.997 44.1867 180.933 44.4325 180.933 44.7039C180.933 44.974 180.997 45.2196 181.123 45.4388ZM184.56 46.9184C184.439 47.061 184.298 47.1698 184.137 47.244C183.978 47.3193 183.804 47.3564 183.618 47.3564C183.383 47.3564 183.164 47.3009 182.959 47.1885C182.753 47.0758 182.519 46.8845 182.255 46.6134C181.901 46.5947 181.583 46.501 181.299 46.3291C181.017 46.1588 180.795 45.9314 180.636 45.6475C180.477 45.3645 180.398 45.0494 180.398 44.7039C180.398 44.343 180.484 44.0164 180.658 43.7243C180.831 43.432 181.068 43.2037 181.373 43.0377C181.675 42.8721 182.016 42.7886 182.394 42.7886C182.768 42.7886 183.107 42.8721 183.41 43.0377C183.713 43.2037 183.95 43.4308 184.121 43.7219C184.293 44.0127 184.378 44.3398 184.378 44.7039C184.378 45.0099 184.316 45.2915 184.193 45.5489C184.07 45.8052 183.897 46.0209 183.675 46.196C183.452 46.3708 183.196 46.4915 182.907 46.5602C183.032 46.6909 183.152 46.7872 183.268 46.8451C183.384 46.9042 183.502 46.9344 183.624 46.9344C183.887 46.9344 184.117 46.8267 184.308 46.6134L184.56 46.9184Z" fill="#231F20"/>
<path d="M185.488 46.1906C185.209 45.9054 185.07 45.4948 185.07 44.9605V42.8305H185.606V44.9384C185.606 45.7407 185.956 46.1416 186.659 46.1416C187.002 46.1416 187.264 46.0433 187.446 45.8449C187.628 45.648 187.718 45.3454 187.718 44.9384V42.8305H188.237V44.9605C188.237 45.4981 188.099 45.9099 187.819 46.1929C187.542 46.4768 187.153 46.6182 186.654 46.6182C186.154 46.6182 185.766 46.4755 185.488 46.1906Z" fill="#231F20"/>
<path d="M189.25 42.8302H189.784V46.5752H189.25V42.8302Z" fill="#231F20"/>
<path d="M193.088 43.2963H191.805V42.8303H194.901V43.2963H193.618V46.5752H193.088V43.2963Z" fill="#231F20"/>
<path d="M198.155 46.1092V46.5742H195.438V42.8307H198.081V43.2954H195.973V44.4455H197.85V44.9001H195.973V46.1092H198.155Z" fill="#231F20"/>
<path d="M202.346 46.5752L202.34 43.8472L200.987 46.1208H200.741L199.388 43.8635V46.5752H198.875V42.8303H199.313L200.875 45.4621L202.415 42.8303H202.854L202.859 46.5752H202.346Z" fill="#231F20"/>
<path d="M206.08 43.5365H204.883V42.8307H208.145V43.5365H206.948V46.5742H206.08V43.5365Z" fill="#231F20"/>
<path d="M210.745 43.7058C210.61 43.5931 210.411 43.5375 210.151 43.5375H209.446V44.8419H210.151C210.411 44.8419 210.61 44.7851 210.745 44.6714C210.881 44.5567 210.948 44.3967 210.948 44.1893C210.948 43.9792 210.881 43.8183 210.745 43.7058ZM210.964 46.5752L210.242 45.5328H210.199H209.446V46.5752H208.578V42.8303H210.199C210.531 42.8303 210.819 42.8859 211.063 42.9973C211.307 43.1074 211.495 43.2638 211.627 43.4679C211.76 43.671 211.826 43.9109 211.826 44.1893C211.826 44.4673 211.758 44.7075 211.625 44.909C211.492 45.1108 211.302 45.265 211.055 45.3717L211.895 46.5752H210.964Z" fill="#231F20"/>
<path d="M214.841 45.1147L214.248 43.6805L213.654 45.1147H214.841ZM215.114 45.7732H213.376L213.044 46.5742H212.156L213.826 42.8306H214.681L216.355 46.5742H215.445L215.114 45.7732Z" fill="#231F20"/>
<path d="M219.13 45.8101C219.246 45.7348 219.304 45.6187 219.304 45.4624C219.304 45.1515 219.075 44.9973 218.614 44.9973H217.603V45.9224H218.614C218.843 45.9224 219.014 45.8852 219.13 45.8101ZM217.603 43.4833V44.3653H218.465C218.678 44.3653 218.841 44.3281 218.951 44.253C219.062 44.1787 219.117 44.0686 219.117 43.9214C219.117 43.7754 219.062 43.6664 218.951 43.5934C218.841 43.52 218.678 43.4833 218.465 43.4833H217.603ZM219.994 44.9671C220.116 45.1259 220.176 45.322 220.176 45.5527C220.176 45.882 220.049 46.1335 219.794 46.3096C219.539 46.486 219.167 46.5752 218.678 46.5752H216.742V42.8302H218.572C219.028 42.8302 219.379 42.9186 219.623 43.0925C219.867 43.2673 219.988 43.5039 219.988 43.8043C219.988 43.9864 219.945 44.1488 219.859 44.291C219.77 44.4337 219.649 44.5464 219.491 44.6275C219.705 44.6959 219.872 44.8084 219.994 44.9671Z" fill="#231F20"/>
<path d="M222.99 45.1147L222.396 43.6805L221.803 45.1147H222.99ZM223.262 45.7732H221.524L221.193 46.5742H220.305L221.974 42.8306H222.83L224.504 46.5742H223.594L223.262 45.7732Z" fill="#231F20"/>
<path d="M224.898 42.8302H225.766V45.8692H227.643V46.5752H224.898V42.8302Z" fill="#231F20"/>
<path d="M231.512 42.8302V46.5752H230.646V45.0401H228.945V46.5752H228.078V42.8302H228.945V44.3062H230.646V42.8302H231.512Z" fill="#231F20"/>
<path d="M234.82 45.7494C234.999 45.6471 235.138 45.5059 235.24 45.3237C235.342 45.1416 235.393 44.9353 235.393 44.7033C235.393 44.4716 235.342 44.2653 235.24 44.0831C235.138 43.901 234.999 43.7597 234.82 43.6575C234.641 43.5557 234.442 43.5057 234.221 43.5057C233.999 43.5057 233.8 43.5557 233.621 43.6575C233.444 43.7597 233.303 43.901 233.202 44.0831C233.101 44.2653 233.05 44.4716 233.05 44.7033C233.05 44.9353 233.101 45.1416 233.202 45.3237C233.303 45.5059 233.444 45.6471 233.621 45.7494C233.8 45.8512 233.999 45.9012 234.221 45.9012C234.442 45.9012 234.641 45.8512 234.82 45.7494ZM233.17 46.3879C232.857 46.2209 232.614 45.9902 232.436 45.6957C232.26 45.4014 232.172 45.0711 232.172 44.7033C232.172 44.3358 232.26 44.0055 232.436 43.711C232.614 43.4176 232.857 43.1859 233.17 43.019C233.482 42.8507 233.832 42.7672 234.221 42.7672C234.609 42.7672 234.959 42.8507 235.269 43.019C235.579 43.1859 235.824 43.4176 236.003 43.711C236.18 44.0055 236.269 44.3358 236.269 44.7033C236.269 45.0711 236.18 45.4014 236.003 45.6957C235.824 45.9902 235.579 46.2209 235.269 46.3879C234.959 46.5562 234.609 46.6396 234.221 46.6396C233.832 46.6396 233.482 46.5562 233.17 46.3879Z" fill="#231F20"/>
<path d="M236.669 46.5029C236.597 46.4335 236.562 46.3455 236.562 46.2386C236.562 46.1354 236.597 46.0483 236.669 45.9791C236.741 45.9093 236.826 45.8746 236.926 45.8746C237.026 45.8746 237.11 45.9083 237.177 45.9767C237.245 46.0438 237.279 46.1317 237.279 46.2386C237.279 46.3455 237.244 46.4335 237.175 46.5029C237.105 46.5725 237.023 46.6074 236.926 46.6074C236.826 46.6074 236.741 46.5725 236.669 46.5029Z" fill="#231F20"/>
<path d="M179.171 51.403L178.363 49.5679L177.556 51.403H179.171ZM179.359 51.8309H177.368L176.957 52.7676H176.406L178.101 49.023H178.631L180.332 52.7676H179.771L179.359 51.8309Z" fill="#231F20"/>
<path d="M181.123 51.6303C181.25 51.8491 181.424 52.022 181.647 52.146C181.871 52.2711 182.119 52.3339 182.394 52.3339C182.665 52.3339 182.911 52.2711 183.131 52.146C183.353 52.022 183.526 51.8491 183.653 51.6303C183.779 51.4111 183.843 51.1652 183.843 50.895C183.843 50.6237 183.779 50.3781 183.653 50.1589C183.526 49.9398 183.353 49.7682 183.131 49.6429C182.911 49.5178 182.665 49.4563 182.394 49.4563C182.119 49.4563 181.871 49.5178 181.647 49.6429C181.424 49.7682 181.25 49.9398 181.123 50.1589C180.997 50.3781 180.933 50.6237 180.933 50.895C180.933 51.1652 180.997 51.4111 181.123 51.6303ZM184.56 53.1095C184.439 53.2522 184.298 53.3613 184.137 53.4353C183.978 53.5107 183.804 53.5479 183.618 53.5479C183.383 53.5479 183.164 53.492 182.959 53.3797C182.753 53.2672 182.519 53.0761 182.255 52.8045C181.901 52.7861 181.583 52.6921 181.299 52.5205C181.017 52.35 180.795 52.1228 180.636 51.839C180.477 51.556 180.398 51.2405 180.398 50.895C180.398 50.5345 180.484 50.2076 180.658 49.9154C180.831 49.6233 181.068 49.3948 181.373 49.2291C181.675 49.0632 182.016 48.9798 182.394 48.9798C182.768 48.9798 183.107 49.0632 183.41 49.2291C183.713 49.3948 183.95 49.622 184.121 49.9131C184.293 50.2039 184.378 50.531 184.378 50.895C184.378 51.201 184.316 51.483 184.193 51.7403C184.07 51.9964 183.897 52.2123 183.675 52.3872C183.452 52.5624 183.196 52.683 182.907 52.7513C183.032 52.8824 183.152 52.9783 183.268 53.0366C183.384 53.0957 183.502 53.1256 183.624 53.1256C183.887 53.1256 184.117 53.0178 184.308 52.8045L184.56 53.1095Z" fill="#231F20"/>
<path d="M185.488 52.3817C185.209 52.0965 185.07 51.6859 185.07 51.1516V49.0219H185.606V51.1295C185.606 51.9318 185.956 52.333 186.659 52.333C187.002 52.333 187.264 52.2346 187.446 52.0363C187.628 51.8391 187.718 51.5365 187.718 51.1295V49.0219H188.237V51.1516C188.237 51.6896 188.099 52.101 187.819 52.384C187.542 52.6679 187.153 52.8096 186.654 52.8096C186.154 52.8096 185.766 52.667 185.488 52.3817Z" fill="#231F20"/>
<path d="M189.25 49.0227H189.784V52.7676H189.25V49.0227Z" fill="#231F20"/>
<path d="M193.088 49.4881H191.805V49.022H194.901V49.4881H193.618V52.7666H193.088V49.4881Z" fill="#231F20"/>
<path d="M198.155 52.3019V52.7666H195.438V49.023H198.081V49.4881H195.973V50.6381H197.85V51.0925H195.973V52.3019H198.155Z" fill="#231F20"/>
<path d="M202.346 52.7676L202.34 50.0394L200.987 52.313H200.741L199.388 50.0555V52.7676H198.875V49.0226H199.313L200.875 51.6545L202.415 49.0226H202.854L202.859 52.7676H202.346Z" fill="#231F20"/>
<path d="M206.172 49.7184V50.7073H207.905V51.4027H206.172V52.7676H205.305V49.0227H208.135V49.7184H206.172Z" fill="#231F20"/>
<path d="M209.118 52.3871C208.82 52.0912 208.672 51.6681 208.672 51.1197V49.0224H209.538V51.0873C209.538 51.7574 209.816 52.0923 210.373 52.0923C210.644 52.0923 210.85 52.0115 210.993 51.8501C211.135 51.6868 211.207 51.4327 211.207 51.0873V49.0224H212.063V51.1197C212.063 51.6681 211.915 52.0912 211.617 52.3871C211.319 52.6839 210.902 52.8311 210.367 52.8311C209.832 52.8311 209.416 52.6839 209.118 52.3871Z" fill="#231F20"/>
<path d="M213.674 49.7289H212.477V49.023H215.739V49.7289H214.541V52.7666H213.674V49.7289Z" fill="#231F20"/>
<path d="M216.602 52.3871C216.304 52.0912 216.156 51.6681 216.156 51.1197V49.0224H217.022V51.0873C217.022 51.7574 217.3 52.0923 217.857 52.0923C218.128 52.0923 218.335 52.0115 218.477 51.8501C218.62 51.6868 218.692 51.4327 218.692 51.0873V49.0224H219.548V51.1197C219.548 51.6681 219.399 52.0912 219.101 52.3871C218.803 52.6839 218.387 52.8311 217.851 52.8311C217.317 52.8311 216.901 52.6839 216.602 52.3871Z" fill="#231F20"/>
<path d="M222.565 49.8972C222.429 49.7845 222.231 49.729 221.972 49.729H221.266V51.0333H221.972C222.231 51.0333 222.429 50.9765 222.565 50.8628C222.701 50.7481 222.768 50.5881 222.768 50.3807C222.768 50.1706 222.701 50.0097 222.565 49.8972ZM222.784 52.7666L222.062 51.7242H222.019H221.266V52.7666H220.398V49.0217H222.019C222.351 49.0217 222.639 49.0773 222.883 49.1887C223.128 49.2988 223.315 49.4555 223.448 49.6593C223.58 49.8624 223.646 50.1023 223.646 50.3807C223.646 50.6587 223.578 50.8989 223.445 51.1004C223.312 51.3022 223.122 51.4564 222.875 51.5631L223.715 52.7666H222.784Z" fill="#231F20"/>
<path d="M226.719 51.9408C226.897 51.8389 227.036 51.6973 227.138 51.5152C227.24 51.333 227.291 51.1267 227.291 50.895C227.291 50.663 227.24 50.4567 227.138 50.2749C227.036 50.0929 226.897 49.9512 226.719 49.8492C226.54 49.7471 226.341 49.6974 226.119 49.6974C225.898 49.6974 225.698 49.7471 225.52 49.8492C225.342 49.9512 225.202 50.0929 225.1 50.2749C224.999 50.4567 224.948 50.663 224.948 50.895C224.948 51.1267 224.999 51.333 225.1 51.5152C225.202 51.6973 225.342 51.8389 225.52 51.9408C225.698 52.0426 225.898 52.0926 226.119 52.0926C226.341 52.0926 226.54 52.0426 226.719 51.9408ZM225.069 52.5796C224.756 52.4127 224.512 52.1821 224.336 51.8875C224.159 51.5931 224.07 51.2625 224.07 50.895C224.07 50.5275 224.159 50.1969 224.336 49.9026C224.512 49.6094 224.756 49.3774 225.069 49.2104C225.381 49.0424 225.731 48.959 226.119 48.959C226.508 48.959 226.858 49.0424 227.167 49.2104C227.478 49.3774 227.723 49.6094 227.901 49.9026C228.078 50.1969 228.168 50.5275 228.168 50.895C228.168 51.2625 228.078 51.5931 227.901 51.8875C227.723 52.1821 227.478 52.4127 227.167 52.5796C226.858 52.7476 226.508 52.8311 226.119 52.8311C225.731 52.8311 225.381 52.7476 225.069 52.5796Z" fill="#231F20"/>
<path d="M228.568 52.6943C228.496 52.6249 228.461 52.5369 228.461 52.43C228.461 52.3268 228.496 52.24 228.568 52.1705C228.639 52.1008 228.724 52.066 228.825 52.066C228.925 52.066 229.008 52.0997 229.076 52.1681C229.144 52.2352 229.177 52.3236 229.177 52.43C229.177 52.5369 229.143 52.6249 229.073 52.6943C229.004 52.764 228.921 52.7988 228.825 52.7988C228.724 52.7988 228.639 52.764 228.568 52.6943Z" fill="#231F20"/>
<path d="M178.47 16.4056C178.782 16.2375 179.139 16.153 179.54 16.153C180.154 16.153 180.677 16.3708 181.111 16.8044L181.779 16.153C181.512 15.8489 181.184 15.6183 180.793 15.4619C180.403 15.304 179.969 15.2252 179.491 15.2252C178.906 15.2252 178.377 15.3518 177.907 15.6044C177.439 15.8559 177.07 16.2049 176.805 16.6502C176.54 17.0954 176.406 17.5963 176.406 18.1564C176.406 18.715 176.54 19.2169 176.805 19.6612C177.07 20.1062 177.437 20.4552 177.904 20.707C178.37 20.9597 178.894 21.0859 179.475 21.0859C179.888 21.0859 180.289 21.0234 180.68 20.8993C181.07 20.7741 181.413 20.5942 181.706 20.3613V18.09H180.704V19.865C180.368 20.0599 179.977 20.1585 179.532 20.1585C179.135 20.1585 178.782 20.0714 178.47 19.8975C178.158 19.7237 177.913 19.4848 177.737 19.1811C177.561 18.8775 177.473 18.5352 177.473 18.1564C177.473 17.7643 177.561 17.4175 177.737 17.1139C177.913 16.8102 178.158 16.5737 178.47 16.4056Z" fill="#231F20"/>
<path d="M187.826 19.1857C187.652 19.4929 187.414 19.7307 187.109 19.902C186.806 20.0728 186.464 20.1585 186.085 20.1585C185.704 20.1585 185.362 20.0728 185.059 19.902C184.755 19.7307 184.516 19.4929 184.342 19.1857C184.169 18.8794 184.082 18.5353 184.082 18.156C184.082 17.7757 184.169 17.4327 184.342 17.1264C184.516 16.8194 184.755 16.5805 185.059 16.41C185.362 16.2397 185.704 16.1539 186.085 16.1539C186.464 16.1539 186.806 16.2397 187.109 16.41C187.414 16.5805 187.652 16.8194 187.826 17.1264C188 17.4327 188.087 17.7757 188.087 18.156C188.087 18.5353 188 18.8794 187.826 19.1857ZM187.656 15.6041C187.188 15.3513 186.664 15.2262 186.085 15.2262C185.504 15.2262 184.98 15.3513 184.514 15.6041C184.046 15.8572 183.68 16.2071 183.414 16.6535C183.149 17.1021 183.016 17.602 183.016 18.156C183.016 18.7092 183.149 19.2101 183.414 19.6577C183.68 20.1049 184.046 20.4553 184.514 20.708C184.98 20.9593 185.504 21.0859 186.085 21.0859C186.664 21.0859 187.188 20.9593 187.656 20.708C188.122 20.4553 188.488 20.1062 188.753 19.6622C189.02 19.217 189.153 18.7151 189.153 18.156C189.153 17.5974 189.02 17.0952 188.753 16.6502C188.488 16.2049 188.122 15.8572 187.656 15.6041Z" fill="#231F20"/>
<path d="M192.662 19.7018L190.765 15.3065H189.617L192.109 21.0039H193.15L195.632 15.3065H194.575L192.662 19.7018Z" fill="#231F20"/>
<path d="M197.621 18.546H200.372V17.6754H197.621V16.1935H200.722V15.3065H196.562V21.0039H200.836V20.1169H197.621V18.546Z" fill="#231F20"/>
<path d="M204.639 18.4727H203.402V16.2015H204.639C205.101 16.2015 205.451 16.3 205.69 16.495C205.929 16.6909 206.048 16.9702 206.048 17.3334C206.048 17.6971 205.929 17.9778 205.69 18.1759C205.451 18.3741 205.101 18.4727 204.639 18.4727ZM206.801 18.4404C207.009 18.1309 207.114 17.7621 207.114 17.3334C207.114 16.916 207.016 16.5551 206.822 16.2504C206.625 15.9463 206.345 15.7133 205.979 15.5511C205.612 15.3877 205.182 15.3065 204.688 15.3065H202.344V21.0049H203.402V19.3436H204.688C204.786 19.3436 204.86 19.3415 204.909 19.3354L206.073 21.0049H207.212L205.901 19.1326C206.291 18.9805 206.592 18.7497 206.801 18.4404Z" fill="#231F20"/>
<path d="M212.63 19.1649L209.488 15.3065H208.617V21.0049H209.667V17.1463L212.81 21.0049H213.68V15.3065H212.63V19.1649Z" fill="#231F20"/>
<path d="M219.935 19.1857C219.762 19.4929 219.523 19.7307 219.219 19.902C218.915 20.0728 218.573 20.1585 218.194 20.1585C217.814 20.1585 217.472 20.0728 217.168 19.902C216.864 19.7307 216.625 19.4929 216.451 19.1857C216.279 18.8794 216.192 18.5353 216.192 18.156C216.192 17.7757 216.279 17.4327 216.451 17.1264C216.625 16.8194 216.864 16.5805 217.168 16.41C217.472 16.2397 217.814 16.1539 218.194 16.1539C218.573 16.1539 218.915 16.2397 219.219 16.41C219.523 16.5805 219.762 16.8194 219.935 17.1264C220.109 17.4327 220.196 17.7757 220.196 18.156C220.196 18.5353 220.109 18.8794 219.935 19.1857ZM219.765 15.6041C219.298 15.3513 218.774 15.2262 218.194 15.2262C217.613 15.2262 217.089 15.3513 216.623 15.6041C216.156 15.8572 215.789 16.2071 215.524 16.6535C215.258 17.1021 215.125 17.602 215.125 18.156C215.125 18.7092 215.258 19.2101 215.524 19.6577C215.789 20.1049 216.156 20.4553 216.623 20.708C217.089 20.9593 217.613 21.0859 218.194 21.0859C218.774 21.0859 219.298 20.9593 219.765 20.708C220.231 20.4553 220.597 20.1062 220.863 19.6622C221.13 19.217 221.263 18.7151 221.263 18.156C221.263 17.5974 221.13 17.0952 220.863 16.6502C220.597 16.2049 220.231 15.8572 219.765 15.6041Z" fill="#231F20"/>
<path d="M229.566 19.1849C229.396 19.4803 229.151 19.7087 228.834 19.8688C228.516 20.0289 228.148 20.1086 227.731 20.1086H226.347V16.2017H227.731C228.148 16.2017 228.516 16.2816 228.834 16.4417C229.151 16.6018 229.396 16.8301 229.566 17.1256C229.737 17.4213 229.822 17.7644 229.822 18.1552C229.822 18.546 229.737 18.8891 229.566 19.1849ZM229.399 15.66C228.927 15.4238 228.387 15.3065 227.78 15.3065H225.289V21.0039H227.78C228.387 21.0039 228.927 20.8856 229.399 20.6503C229.871 20.4137 230.237 20.0798 230.498 19.6486C230.759 19.2173 230.889 18.7199 230.889 18.1552C230.889 17.5906 230.759 17.0933 230.498 16.6619C230.237 16.2293 229.871 15.8968 229.399 15.66Z" fill="#231F20"/>
<path d="M236.74 19.1857C236.566 19.4929 236.327 19.7307 236.024 19.902C235.72 20.0728 235.378 20.1585 234.998 20.1585C234.618 20.1585 234.277 20.0728 233.972 19.902C233.669 19.7307 233.43 19.4929 233.256 19.1857C233.084 18.8794 232.996 18.5353 232.996 18.156C232.996 17.7757 233.084 17.4327 233.256 17.1264C233.43 16.8194 233.669 16.5805 233.972 16.41C234.277 16.2397 234.618 16.1539 234.998 16.1539C235.378 16.1539 235.72 16.2397 236.024 16.41C236.327 16.5805 236.566 16.8194 236.74 17.1264C236.914 17.4327 237.001 17.7757 237.001 18.156C237.001 18.5353 236.914 18.8794 236.74 19.1857ZM237.668 16.6502C237.402 16.2049 237.036 15.8572 236.57 15.6041C236.103 15.3513 235.578 15.2262 234.998 15.2262C234.418 15.2262 233.894 15.3513 233.428 15.6041C232.961 15.8572 232.594 16.2071 232.329 16.6535C232.063 17.1021 231.93 17.602 231.93 18.156C231.93 18.7092 232.063 19.2101 232.329 19.6577C232.594 20.1049 232.961 20.4553 233.428 20.708C233.894 20.9593 234.418 21.0859 234.998 21.0859C235.578 21.0859 236.103 20.9593 236.57 20.708C237.036 20.4553 237.402 20.1062 237.668 19.6622C237.934 19.217 238.068 18.7151 238.068 18.156C238.068 17.5974 237.934 17.0952 237.668 16.6502Z" fill="#231F20"/>
<path d="M185.853 31.1651C186.341 30.7476 186.586 30.1541 186.586 29.3822C186.586 28.6111 186.341 28.0127 185.853 27.5873C185.365 27.1628 184.64 26.9495 183.68 26.9495H181.083V31.7911H183.68C184.64 31.7911 185.365 31.5824 185.853 31.1651ZM187.861 24.0094C188.963 24.5057 189.812 25.2139 190.412 26.1344C191.009 27.0562 191.309 28.1391 191.309 29.3822C191.309 30.6261 191.009 31.7044 190.412 32.618C189.812 33.5312 188.963 34.2352 187.861 34.7315C186.758 35.2278 185.46 35.4758 183.963 35.4758H181.083V39.7969H176.406V23.2651H183.963C185.46 23.2651 186.758 23.5131 187.861 24.0094Z" fill="#006B30"/>
<path d="M192.164 23.2651H196.84V39.7969H192.164V23.2651Z" fill="#006B30"/>
<path d="M209.401 33.1362L207.276 27.846L205.151 33.1362H209.401ZM210.771 36.5843H203.78L202.482 39.7959H197.711L205.009 23.2652H209.614L216.935 39.7959H212.07L210.771 36.5843Z" fill="#006B30"/>
<path d="M217.918 38.1198C216.555 36.7818 215.875 34.8853 215.875 32.4284V23.2656H220.551V32.287C220.551 34.9316 221.598 36.2545 223.691 36.2545C225.77 36.2545 226.809 34.9316 226.809 32.287V23.2656H231.414V32.4284C231.414 34.8853 230.734 36.7818 229.371 38.1198C228.01 39.459 226.101 40.1279 223.645 40.1279C221.188 40.1279 219.279 39.459 217.918 38.1198Z" fill="#006B30"/>
<path d="M237.363 23.2644H232.688V26.2695L237.363 23.2644Z" fill="#006B30"/>
<path d="M232.688 27.628V39.7959H237.363V24.6229L232.688 27.628Z" fill="#006B30"/>
<path d="M179.82 18.9258H181.703V18.0901H179.82V18.9258Z" fill="#231F20"/>
</svg>
