<svg width="1167" height="1376" viewBox="0 0 1167 1376" fill="none" xmlns="http://www.w3.org/2000/svg">
<path d="M660.695 329.619C796.003 277.016 930.609 237.063 1063.41 229.11C1064.45 210.767 1065.47 192.542 1066.5 174.488C933.513 185.532 799.187 221.133 664.06 270.255C662.924 290.002 661.823 309.777 660.695 329.619Z" fill="#254AA5"/>
<path d="M1064.88 270.418C940.669 276.051 814.787 311.946 688.158 360.63C687.056 380.281 685.929 400.007 684.828 419.775C811.571 368.653 937.644 329.761 1061.69 326.424C1062.77 307.623 1063.84 288.939 1064.88 270.418Z" fill="#F5AF0C"/>
<path d="M622.375 546.435C779.804 477.258 936.682 417.58 1089.74 425.871C1090.84 406.459 1091.94 387.192 1093.01 368.028C939.805 362.588 783.145 418.499 625.801 486.01C624.639 506.148 623.511 526.278 622.375 546.435Z" fill="#F5AF0C"/>
<path d="M1103.58 571.729C1102.44 591.649 1101.31 611.663 1100.18 631.773C765.612 593.054 409.425 936.944 74.8281 898.436L89.2377 840.325C420.56 870.736 772.834 530.935 1103.58 571.729Z" fill="#EF3120"/>
<path d="M1167 688.238C1165.86 708.465 1164.7 728.697 1163.57 748.933C974.664 691.499 777.123 786.568 580.26 869.743C384.306 955.089 189.031 1028.6 0 991.351L14.3162 933.582C388.931 1022.22 793.303 583.962 1167 688.238Z" fill="#EF3120"/>
<path d="M1130.92 786.982C1129.76 807.313 1128.63 827.712 1127.46 848.135C946.142 811.877 757.594 902.929 570.038 977.066C382.956 1054.37 196.828 1114.82 15.0469 1097.95L29.4602 1039.91C207.262 1061.21 390.023 995.074 573.46 916.469C761.234 838.563 949.782 747.607 1130.92 786.982Z" fill="#EF3120"/>
<path d="M458.245 1257.8C457.178 1276.76 456.101 1295.63 455.035 1314.44C347.405 1340.86 240.336 1358.05 133.164 1376L146.261 1323.28C249.873 1308 353.799 1287.46 458.245 1257.8Z" fill="#217526"/>
<path d="M1082.57 946.962C909.106 934.781 730.107 1020.27 552.364 1083.68C370.486 1153 189.904 1199.27 11.9688 1198.49L26.4457 1140.11C200.214 1148.48 377.467 1095.42 555.762 1023.42C733.782 955.103 912.867 867.918 1086.12 884.356L1082.57 946.962Z" fill="#217526"/>
<path d="M840.757 1091.14C729.097 1122.44 616.698 1166.99 504.879 1201.27C363.269 1246.81 222.572 1275.86 82.6406 1291.79L96.3187 1236.58C232.485 1225.17 369.9 1191.31 508.186 1142.46C620.246 1104.36 732.822 1056.45 844.521 1024.55L840.757 1091.14Z" fill="#217526"/>
<path d="M1017.39 86.7912C1016.41 104.003 1015.43 121.378 1014.45 138.952C913.159 152.218 811.16 177.795 708.734 211.248L711.978 153.672C814.221 123.624 916.029 101.24 1017.39 86.7912Z" fill="#254AA5"/>
<path d="M848.354 28.1893C896.776 18.3024 945.176 9.23717 993.602 -0.000354014C993.42 16.7998 993.236 33.7726 993.054 50.9109C943.858 59.3191 894.637 68.8882 845.414 80.0088L848.354 28.1893Z" fill="#254AA5"/>
<path d="M1066.88 524.536C870.688 516.773 667.645 630.889 466.312 714.158L469.774 653.132C671.103 569.662 873.967 459.197 1070.19 465.844C1069.11 485.281 1067.98 504.837 1066.88 524.536Z" fill="#F5AF0C"/>
</svg>
